<?xml version="1.0" encoding="utf-8"?>
<!-- Generator: Adobe Illustrator 19.0.1, SVG Export Plug-In . SVG Version: 6.00 Build 0)  -->
<!DOCTYPE svg PUBLIC "-//W3C//DTD SVG 1.1//EN" "http://www.w3.org/Graphics/SVG/1.1/DTD/svg11.dtd">
<svg version="1.1" id="Layer_1" xmlns="http://www.w3.org/2000/svg" xmlns:xlink="http://www.w3.org/1999/xlink" x="0px" y="0px"
	 viewBox="0 0 50 50" enable-background="new 0 0 50 50" xml:space="preserve">
<g>
	<path fill="#64C4B0" d="M22.6,34.8c0,2.4,0,4.8,0,7.2c-3.6,0-7.2,0-10.8,0c0-0.1,0-0.2,0-0.3c0-5.2,0-10.3,0-15.5
		c0-0.6,0.2-1,0.7-1.4c2.1-1.9,4.2-3.9,6.3-5.8c1.9-1.7,3.9-3.5,5.8-5.3c0.4-0.3,0.6-0.3,1,0c4,3.7,8,7.3,12,11
		c0.4,0.4,0.7,0.8,0.7,1.4c0,5.2,0,10.3,0,15.5c0,0.1,0,0.2,0,0.3c-3.6,0-7.2,0-10.8,0c0-2.4,0-4.8,0-7.2
		C25.8,34.8,24.3,34.8,22.6,34.8z"/>
	<path fill="#64C4B0" d="M7.7,25.2c-0.4,0-0.8,0-1.2,0c-0.1,0-0.2-0.1-0.3-0.2c0.1-0.1,0.1-0.2,0.2-0.2c1.7-1.6,3.5-3.3,5.3-4.9
		c2.8-2.6,5.6-5.3,8.4-7.9c1.5-1.4,3-2.8,4.5-4.3c0.4-0.3,0.7-0.3,1.1,0c2.9,2.7,5.8,5.4,8.7,8.2c3,2.9,6.2,5.8,9.2,8.7
		c0.2,0.2,0.2,0.3,0.3,0.5c-0.2,0-0.3,0.1-0.6,0.1c-0.7,0-1.4,0-2.1,0c-0.5,0-0.9-0.2-1.2-0.6c-4.7-4.3-9.3-8.7-14-12.9
		c-0.1-0.1-0.2-0.2-0.3-0.2c-0.3-0.3-0.7-0.3-1,0c-1,0.9-2.1,1.9-3,2.8c-3.8,3.5-7.6,7.1-11.5,10.5c-0.3,0.3-0.8,0.5-1.3,0.5
		C8.4,25.2,8,25.2,7.7,25.2L7.7,25.2z"/>
</g>
</svg>
