<?xml version="1.0" encoding="utf-8"?>
<!-- Generator: Adobe Illustrator 18.0.0, SVG Export Plug-In . SVG Version: 6.00 Build 0)  -->
<!DOCTYPE svg PUBLIC "-//W3C//DTD SVG 1.1//EN" "http://www.w3.org/Graphics/SVG/1.1/DTD/svg11.dtd">
<svg version="1.1" id="Layer_1" xmlns="http://www.w3.org/2000/svg" xmlns:xlink="http://www.w3.org/1999/xlink" x="0px" y="0px"
	 viewBox="0 0 100 100" enable-background="new 0 0 100 100" xml:space="preserve">
<g>
	<path fill="#FFFFFF" d="M50,94.3c-10.3,0-20.1-4-27.4-11.4c-7.3-7.3-11.4-17-11.4-27.4s4-20.1,11.4-27.4s17-11.4,27.4-11.4
		s20.1,4,27.4,11.4c7.3,7.3,11.4,17,11.4,27.4s-4,20.1-11.4,27.4C70.1,90.2,60.4,94.3,50,94.3z M50,19.6c-19.8,0-36,16.1-36,36
		c0,19.8,16.1,36,36,36s36-16.1,36-36C86,35.7,69.9,19.6,50,19.6z"/>
</g>
<g>
	<g>
		<path fill="#FFFFFF" d="M49.2,49.8c3.3,0,5.9,1.5,7.8,4.2c1,1.4,1.9,2.9,2.9,4.4c1.2,1.8,2.7,3.4,4.3,4.9c2.3,2.1,4,4.6,4.6,7.7
			c0.9,4.6-1.6,8.8-6.1,10c-1.8,0.5-3.5,0.3-5.2-0.2c-1.7-0.4-3.5-0.9-5.2-1.3c-2.7-0.6-5.3-0.4-8,0.4c-1.7,0.5-3.4,0.9-5.1,1.2
			c-2,0.4-3.9,0.2-5.7-0.9c-3-1.9-4.3-4.7-4-8.2c0.3-3.5,2-6.3,4.5-8.6c2.3-2.1,4.2-4.5,6-7c1.1-1.5,2.1-3,3.5-4.3
			C45.1,50.6,46.9,49.8,49.2,49.8z"/>
	</g>
	<g>
		<path fill="#FFFFFF" d="M65.8,37.9c-0.1,3.1-1.1,6-3.5,8.3c-1.1,1.1-2.5,1.9-4.1,2c-2.2,0.2-3.9-0.7-5.1-2.5
			c-1.2-1.7-1.6-3.6-1.6-5.7c0.1-3.2,1.1-6.1,3.5-8.4c1.2-1.1,2.5-1.9,4.2-2c2.2-0.2,3.8,0.8,5,2.6C65.4,33.9,65.8,35.7,65.8,37.9z"
			/>
	</g>
	<g>
		<path fill="#FFFFFF" d="M47.2,39.7c-0.1,2.4-0.6,4.5-2,6.3c-1.7,2.1-4.4,2.6-6.8,1.3c-2-1.1-3.3-2.8-4.1-4.9
			c-1.1-2.9-1.2-5.8,0.1-8.7c0.7-1.5,1.7-2.8,3.3-3.4c2.1-0.8,4-0.3,5.7,1.1c2.1,1.7,3.1,4,3.6,6.6C47.1,38.6,47.1,39.3,47.2,39.7z"
			/>
	</g>
	<g>
		<path fill="#FFFFFF" d="M77.9,50c0,3.8-2.5,7.7-5.8,9c-3.5,1.4-6.7-0.2-7.6-3.8c-1.1-4.2,1.7-9.6,5.8-11.1c3.6-1.3,7,0.7,7.5,4.5
			C77.9,49.2,77.9,49.6,77.9,50z"/>
	</g>
	<g>
		<path fill="#FFFFFF" d="M34.8,52.5c0,2-0.3,3.4-1,4.6c-1.5,2.5-4.3,3.2-7,1.9c-2.1-1-3.5-2.8-4.4-4.9c-0.8-2-1.1-4.1-0.4-6.2
			c0.6-2.1,1.9-3.6,4.1-4c1.9-0.3,3.6,0.3,5,1.5C33.6,47.4,34.7,50,34.8,52.5z"/>
	</g>
</g>
<g>
	<g>
		<path fill="#FFFFFF" d="M28.5,22.1l-2,1.2l-5.2-8.7l3-1.8c2.3-1.4,4-0.5,4.8,1c0.9,1.5,0.9,3.4-1.4,4.7l-1,0.6L28.5,22.1z
			 M25.6,17.2l1-0.6c0.9-0.5,0.7-1.2,0.5-1.6c-0.3-0.4-0.7-0.9-1.6-0.3l-1,0.6L25.6,17.2z"/>
	</g>
	<g>
		<path fill="#FFFFFF" d="M38.3,13.3l-3.6,1.2l0.6,1.8l4-1.4L40,17l-6.2,2.1l-3.3-9.6l6.2-2.1l0.7,2.1l-4,1.4l0.5,1.5l3.6-1.2
			L38.3,13.3z"/>
	</g>
	<g>
		<path fill="#FFFFFF" d="M45,8.3l1,7.9l-2.3,0.3l-1-7.9l-2.4,0.3l-0.3-2.2l7.1-0.9L47.4,8L45,8.3z"/>
	</g>
	<g>
		<path fill="#FFFFFF" d="M60.1,13.9c-0.3,1.6-1.3,3.3-4.5,2.8c-0.9-0.1-2.4-0.7-3-1.2l0.4-2.4c0.5,0.4,1.7,1.1,3,1.3
			c1.3,0.2,1.7-0.3,1.8-0.9c0.1-0.6-0.2-0.9-1.2-1.1c-2.4-0.7-3.3-1.5-3-3.6c0.2-1.4,1.1-3.1,4.1-2.6c1.1,0.2,2.2,0.6,2.9,1.1
			l-0.4,2.4c-1.4-0.9-2.1-1.1-2.8-1.2c-1.1-0.2-1.4,0.3-1.5,0.8c-0.1,0.6,0.4,0.8,1.3,1.1C59.4,10.9,60.4,11.6,60.1,13.9z"/>
	</g>
	<g>
		<path fill="#FFFFFF" d="M68.4,15.9l-3.6-1.4l-0.7,1.8l4,1.5l-0.8,2.1l-6.1-2.3L64.9,8l6.1,2.3l-0.8,2.1l-4-1.5l-0.6,1.5l3.6,1.4
			L68.4,15.9z"/>
	</g>
	<g>
		<path fill="#FFFFFF" d="M76.8,16.4L72.5,23l-1.9-1.2l4.3-6.7l-2-1.3l1.2-1.9l6,3.9l-1.2,1.9L76.8,16.4z"/>
	</g>
</g>
</svg>
