<?xml version="1.0" encoding="utf-8"?>
<!-- Generator: Adobe Illustrator 18.0.0, SVG Export Plug-In . SVG Version: 6.00 Build 0)  -->
<!DOCTYPE svg PUBLIC "-//W3C//DTD SVG 1.1//EN" "http://www.w3.org/Graphics/SVG/1.1/DTD/svg11.dtd">
<svg version="1.1" id="Layer_1" xmlns="http://www.w3.org/2000/svg" xmlns:xlink="http://www.w3.org/1999/xlink" x="0px" y="0px"
	 viewBox="0 0 576 576" enable-background="new 0 0 576 576" xml:space="preserve">
<g>
	<path fill="#6D6E71" d="M288.2,543c-59.6,0-115.7-23.2-157.8-65.4C88.3,435.5,65,379.5,65,319.8S88.3,204.2,130.4,162
		s98.2-65.4,157.8-65.4S403.9,119.9,446,162c42.2,42.2,65.4,98.2,65.4,157.8S488.2,435.5,446,477.7C403.9,519.8,347.8,543,288.2,543
		z M288.2,112.7C174,112.7,81,205.6,81,319.8C81,434.1,174,527,288.2,527s207.2-92.9,207.2-207.2
		C495.4,205.6,402.5,112.7,288.2,112.7z"/>
</g>
<g>
	<g>
		<path fill="#27BAA2" d="M283.6,287c18.8-0.2,33.7,8.6,44.7,24.4c5.7,8.3,11.2,16.8,16.7,25.1c7,10.6,15.6,19.8,25,28.4
			c13.2,12.1,22.8,26.4,26.4,44.3c5.3,26.4-9.4,50.5-35,57.4c-10.1,2.7-20.1,1.6-30.1-0.9c-10-2.5-19.9-5.3-30-7.6
			c-15.5-3.7-30.7-2.1-45.9,2.1c-9.6,2.7-19.3,5.2-29.1,7c-11.4,2.1-22.7,1.3-32.8-5.1c-17.2-10.9-24.8-27-23.1-47.1
			c1.6-20,11.3-36.3,25.9-49.5c13.3-12,24.1-25.9,34.3-40.5c6.1-8.7,12.3-17.4,20.1-24.8C259.7,291.7,270.1,286.6,283.6,287z"/>
	</g>
	<g>
		<path fill="#27BAA2" d="M379,218.4c-0.6,17.6-6.3,34.5-20.1,48c-6.5,6.4-14.2,10.8-23.5,11.7c-12.5,1.2-22.2-4.1-29.3-14.2
			c-6.9-9.8-9.4-21-9-32.9c0.5-18.6,6.6-35.1,20.1-48.3c6.7-6.5,14.6-10.9,24-11.6c12.4-0.9,21.9,4.6,28.8,14.7
			C376.6,195.2,378.8,205.8,379,218.4z"/>
	</g>
	<g>
		<path fill="#27BAA2" d="M271.8,228.9c-0.4,14-3.3,26-11.6,36.1c-9.9,11.9-25.6,15-39.2,7.5c-11.6-6.4-18.9-16.4-23.4-28.5
			c-6.3-16.7-6.9-33.5,0.3-50.1c3.9-8.9,9.8-16.1,19.1-19.8c12.3-4.8,23.3-1.6,33.1,6.4c12,9.8,18.1,23,20.6,38
			C271.3,222.4,271.5,226.3,271.8,228.9z"/>
	</g>
	<g>
		<path fill="#27BAA2" d="M448.9,288.2c-0.2,22-14.4,44.2-33.4,52c-20.1,8.2-38.4-0.9-43.9-22c-6.3-24.3,9.9-55.1,33.4-63.7
			c21-7.7,40.3,4,43.2,26.2C448.6,283.2,448.7,285.7,448.9,288.2z"/>
	</g>
	<g>
		<path fill="#27BAA2" d="M200.3,302.3c0,11.7-1.6,19.5-5.9,26.4c-8.9,14.2-24.6,18.4-40.1,10.8c-12.1-6-20.1-16-25.1-28.3
			c-4.7-11.6-6.3-23.6-2.5-35.9c3.7-11.9,11-20.6,23.8-23c11-2,20.6,1.9,28.9,8.8C193.3,272.8,199.7,288,200.3,302.3z"/>
	</g>
</g>
<g>
	<g>
		<path fill="#27BAA2" d="M164.2,127.3l-11.4,6.8l-30-50.2l17-10.2c13.4-8,22.8-3,27.9,5.7c5.2,8.7,5.2,19.3-8.2,27.3l-5.6,3.3
			L164.2,127.3z M147.4,99l5.6-3.4c5.2-3.1,4.3-6.7,2.8-9.1c-1.5-2.5-4.2-4.9-9.4-1.9l-5.6,3.4L147.4,99z"/>
	</g>
	<g>
		<path fill="#27BAA2" d="M220.6,76.5l-21,7.2l3.5,10.3l23.1-7.9l4.1,12.1l-35.5,12.1L176,55l35.5-12.1l4.1,12.1l-23.1,7.9l3,8.6
			l21-7.2L220.6,76.5z"/>
	</g>
	<g>
		<path fill="#27BAA2" d="M259.4,47.7L265,93l-13.2,1.6l-5.6-45.4L232.3,51l-1.6-12.7l41-5l1.6,12.7L259.4,47.7z"/>
	</g>
	<g>
		<path fill="#27BAA2" d="M346.1,80c-1.5,9.3-7.5,18.8-25.9,15.9c-4.9-0.8-13.7-4-17.4-6.7l2.1-13.6c2.6,2.1,9.7,6.4,17.4,7.6
			c7.2,1.1,9.8-1.6,10.4-5.3c0.5-3.5-1.4-5.1-6.9-6.6c-14.1-4.1-18.8-8.9-17-20.6c1.2-7.9,6.3-17.7,23.8-15c6.6,1,12.4,3.4,16.6,6.2
			l-2.2,13.7c-7.8-5.2-12.2-6.6-16.4-7.2c-6.4-1-8.2,1.5-8.7,4.4c-0.5,3.2,2.4,4.6,7.7,6.1C342.1,62.5,348.1,67,346.1,80z"/>
	</g>
	<g>
		<path fill="#27BAA2" d="M394,91.4l-20.7-8l-3.9,10.2l22.8,8.8l-4.6,11.9l-35-13.5l21-54.6l35,13.5L404,71.7l-22.8-8.8l-3.3,8.5
			l20.7,8L394,91.4z"/>
	</g>
	<g>
		<path fill="#27BAA2" d="M442.3,94.2l-24.8,38.4l-11.2-7.2l24.8-38.4l-11.7-7.6l6.9-10.7L460.9,91l-6.9,10.7L442.3,94.2z"/>
	</g>
</g>
</svg>
