<?xml version="1.0" encoding="utf-8"?>
<!-- Generator: Adobe Illustrator 19.0.1, SVG Export Plug-In . SVG Version: 6.00 Build 0)  -->
<!DOCTYPE svg PUBLIC "-//W3C//DTD SVG 1.1//EN" "http://www.w3.org/Graphics/SVG/1.1/DTD/svg11.dtd">
<svg version="1.1" id="Layer_1" xmlns="http://www.w3.org/2000/svg" xmlns:xlink="http://www.w3.org/1999/xlink" x="0px" y="0px"
	 viewBox="0 0 50 50" enable-background="new 0 0 50 50" xml:space="preserve">
<g>
	<path fill="#FFFFFF" d="M25,47.5c-5.3,0-10.3-2-14-5.8C7.3,38,5.2,33,5.2,27.7s2-10.3,5.8-14s8.7-5.8,14-5.8s10.3,2,14,5.8
		c3.7,3.7,5.8,8.7,5.8,14s-2,10.3-5.8,14C35.3,45.4,30.3,47.5,25,47.5z M25,9.3c-10.1,0-18.4,8.2-18.4,18.4
		c0,10.1,8.2,18.4,18.4,18.4s18.4-8.2,18.4-18.4S35.2,9.3,25,9.3z"/>
</g>
<g>
	<g>
		<path fill="#FFFFFF" d="M24.6,24.8c1.7,0,3,0.8,4,2.1c0.5,0.7,1,1.5,1.5,2.3c0.6,0.9,1.4,1.7,2.2,2.5c1.2,1.1,2,2.4,2.4,3.9
			c0.5,2.4-0.8,4.5-3.1,5.1c-0.9,0.3-1.8,0.2-2.7-0.1c-0.9-0.2-1.8-0.5-2.7-0.7c-1.4-0.3-2.7-0.2-4.1,0.2c-0.9,0.3-1.7,0.5-2.6,0.6
			c-1,0.2-2,0.1-2.9-0.5c-1.5-1-2.2-2.4-2-4.2s1-3.2,2.3-4.4c1.2-1.1,2.1-2.3,3.1-3.6c0.6-0.8,1.1-1.5,1.8-2.2
			C22.5,25.2,23.4,24.8,24.6,24.8z"/>
	</g>
	<g>
		<path fill="#FFFFFF" d="M33.1,18.7c-0.1,1.6-0.6,3.1-1.8,4.2c-0.6,0.6-1.3,1-2.1,1c-1.1,0.1-2-0.4-2.6-1.3
			c-0.6-0.9-0.8-1.8-0.8-2.9c0.1-1.6,0.6-3.1,1.8-4.3c0.6-0.6,1.3-1,2.1-1c1.1-0.1,1.9,0.4,2.6,1.3C32.9,16.6,33.1,17.5,33.1,18.7z"
			/>
	</g>
	<g>
		<path fill="#FFFFFF" d="M23.6,19.6c-0.1,1.2-0.3,2.3-1,3.2c-0.9,1.1-2.3,1.3-3.5,0.7C18,22.9,17.4,22,17,21
			c-0.6-1.5-0.6-3,0.1-4.4c0.4-0.8,0.9-1.4,1.7-1.7c1.1-0.4,2-0.2,2.9,0.6c1.1,0.9,1.6,2,1.8,3.4C23.5,19,23.5,19.4,23.6,19.6z"/>
	</g>
	<g>
		<path fill="#FFFFFF" d="M39.3,24.9c0,1.9-1.3,3.9-3,4.6c-1.8,0.7-3.4-0.1-3.9-1.9c-0.6-2.1,0.9-4.9,3-5.7c1.8-0.7,3.6,0.4,3.8,2.3
			C39.3,24.4,39.3,24.7,39.3,24.9z"/>
	</g>
	<g>
		<path fill="#FFFFFF" d="M17.2,26.1c0,1-0.2,1.7-0.5,2.4c-0.8,1.3-2.2,1.6-3.6,1c-1.1-0.5-1.8-1.4-2.3-2.5c-0.4-1-0.6-2.1-0.2-3.2
			c0.3-1.1,1-1.8,2.1-2c1-0.2,1.8,0.2,2.6,0.8C16.6,23.5,17.2,24.9,17.2,26.1z"/>
	</g>
</g>
<g>
	<g>
		<path fill="#FFFFFF" d="M14,10.6l-1,0.6l-2.7-4.4l1.5-0.9c1.2-0.7,2-0.3,2.5,0.5c0.5,0.8,0.5,1.7-0.7,2.4l-0.5,0.3L14,10.6z
			 M12.5,8.1L13,7.8c0.5-0.3,0.4-0.6,0.3-0.8c-0.2-0.2-0.4-0.5-0.8-0.2L12,7.1L12.5,8.1z"/>
	</g>
	<g>
		<path fill="#FFFFFF" d="M19,6.1l-1.8,0.6l0.3,0.9l2-0.7L19.9,8l-3.2,1.1L15,4.1l3.2-1.1l0.4,1.1l-2,0.7l0.3,0.8L18.6,5L19,6.1z"/>
	</g>
	<g>
		<path fill="#FFFFFF" d="M22.4,3.5l0.5,4l-1.2,0.2l-0.5-4L20,3.8l-0.2-1.1l3.6-0.5l0.2,1.1L22.4,3.5z"/>
	</g>
	<g>
		<path fill="#FFFFFF" d="M30.2,6.4c-0.2,0.8-0.7,1.7-2.3,1.4c-0.5-0.1-1.2-0.4-1.5-0.6L26.5,6c0.3,0.2,0.9,0.6,1.5,0.7
			c0.7,0.1,0.9-0.2,0.9-0.5s-0.1-0.5-0.6-0.6c-1.2-0.4-1.7-0.8-1.5-1.8c0.1-0.7,0.6-1.6,2.1-1.3c0.6,0.1,1.1,0.3,1.5,0.6l-0.2,1.2
			c-0.7-0.5-1.1-0.6-1.4-0.6C28.2,3.5,28.1,3.8,28,4c-0.1,0.3,0.2,0.4,0.7,0.6C29.8,4.9,30.3,5.2,30.2,6.4z"/>
	</g>
	<g>
		<path fill="#FFFFFF" d="M34.4,7.4l-1.8-0.7l-0.4,0.9l2,0.8l-0.4,1.1l-3.1-1.2l1.9-4.9l3.1,1.2l-0.4,1.1l-2-0.8L33,5.6l1.8,0.7
			L34.4,7.4z"/>
	</g>
	<g>
		<path fill="#FFFFFF" d="M38.7,7.7L36.5,11l-1-0.6L37.7,7l-1-0.7l0.6-1l3.1,2l-0.6,1L38.7,7.7z"/>
	</g>
</g>
</svg>
